mtllib crystal2.mtl
v 167.607971 128.386383 -82.574814
v 159.476013 221.027496 78.407593
v 146.436157 41.561157 31.656792
v 45.637390 42.472412 -78.407623
v 38.529518 190.337189 -59.410751
v 17.357719 103.511971 54.820847
vt 0.500000 0.588492
vt 0.500000 0.000000
vt 1.000000 0.588492
vt 1.000000 0.588492
vt 0.500000 1.000000
vt 0.500000 0.588492
vt 0.000000 0.588492
vt 0.500000 0.000000
vt 0.500000 0.588492
vt 0.500000 0.588492
vt 0.500000 1.000000
vt 0.000000 0.588492
vt 0.500000 0.588492
vt 0.500000 0.000000
vt 0.000000 0.588492
vt 0.000000 0.588492
vt 0.500000 1.000000
vt 0.500000 0.588492
vt 1.000000 0.588492
vt 0.500000 0.000000
vt 0.500000 0.588492
vt 0.500000 0.588492
vt 0.500000 1.000000
vt 1.000000 0.588492
vn 0.989184 -0.099860 0.107435
vn 0.989184 -0.099860 0.107435
vn 0.989184 -0.099860 0.107435
vn 0.499600 -0.731760 -0.463600
vn 0.499600 -0.731760 -0.463600
vn 0.499600 -0.731760 -0.463600
vn 0.315245 0.829331 -0.461334
vn 0.315245 0.829331 -0.461334
vn 0.315245 0.829331 -0.461334
vn -0.118833 0.120903 -0.985525
vn -0.118833 0.120903 -0.985525
vn -0.118833 0.120903 -0.985525
vn -0.623153 0.673976 0.396780
vn -0.623153 0.673976 0.396780
vn -0.623153 0.673976 0.396780
vn -0.979945 -0.021657 -0.198085
vn -0.979945 -0.021657 -0.198085
vn -0.979945 -0.021657 -0.198085
vn 0.050785 -0.255215 0.965549
vn 0.050785 -0.255215 0.965549
vn 0.050785 -0.255215 0.965549
vn -0.361512 -0.874320 0.323840
vn -0.361512 -0.874320 0.323840
vn -0.361512 -0.874320 0.323840
usemtl mtl_001
f 1/1/1 2/2/2 3/3/3
f 3/4/4 4/5/5 1/6/6
f 5/7/7 2/8/8 1/9/9
f 1/10/10 4/11/11 5/12/12
f 6/13/13 2/14/14 5/15/15
f 5/16/16 4/17/17 6/18/18
f 3/19/19 2/20/20 6/21/21
f 6/22/22 4/23/23 3/24/24
